<svg version="1.1" id="Layer_1" xmlns="http://www.w3.org/2000/svg" xmlns:xlink="http://www.w3.org/1999/xlink" x="0px" y="0px"
	 width="100%" viewBox="0 0 1596 2210" enable-background="new 0 0 1596 2210" xml:space="preserve">
<path fill="#0088B7" opacity="1.000000" stroke="none" 
	d="
M1597.000000,83.000000 
	C1597.000000,764.366028 1597.000000,1445.732056 1596.619507,2127.730957 
	C1595.666016,2132.577637 1595.468506,2136.883789 1594.456665,2140.989258 
	C1589.489868,2161.139160 1579.143066,2177.981445 1562.671753,2190.773438 
	C1548.975586,2201.410400 1533.345947,2208.572510 1516.088745,2208.779053 
	C1443.682739,2209.645996 1371.266724,2209.948730 1298.854248,2209.980469 
	C1042.569824,2210.093018 786.285400,2210.007080 530.000977,2210.041260 
	C528.000610,2210.041504 526.000305,2210.666748 524.000000,2211.000000 
	C375.967285,2211.000000 227.934540,2211.000000 79.278976,2210.625977 
	C75.113487,2209.681885 71.494545,2209.401611 68.041061,2208.492676 
	C49.941326,2203.729248 34.644768,2194.571533 22.455812,2180.089844 
	C13.574537,2169.537842 7.280367,2157.835449 4.029566,2144.500732 
	C2.783951,2139.391357 1.996327,2134.170166 1.000001,2129.000000 
	C1.000000,1447.633911 1.000000,766.267883 1.380493,84.268921 
	C2.334125,79.422081 2.527658,75.114052 3.544665,71.010094 
	C8.534364,50.875000 18.803226,34.002239 35.319996,21.213312 
	C49.043369,10.587314 64.626030,3.411133 81.912186,3.210135 
	C154.318710,2.368215 226.734283,2.051459 299.146759,2.019632 
	C555.430725,1.906990 811.714844,1.992775 1067.998901,1.958333 
	C1069.999268,1.958065 1071.999634,1.333223 1074.000000,1.000001 
	C1222.032715,1.000000 1370.065430,1.000000 1518.719116,1.372725 
	C1521.278076,2.026275 1523.234985,2.213731 1525.151123,2.602332 
	C1545.277344,6.683908 1562.092651,16.465124 1575.515747,32.018932 
	C1583.686523,41.486858 1589.663330,52.199688 1592.946289,64.272125 
	C1594.620117,70.427032 1595.668701,76.751945 1597.000000,83.000000 
M278.728973,1612.880981 
	C279.197021,1612.708862 279.655457,1612.501953 280.134521,1612.369629 
	C403.729889,1578.239990 527.326965,1544.116699 650.923218,1509.990112 
	C666.913147,1505.575073 682.898743,1501.144165 698.709229,1496.769653 
	C698.709229,1056.665649 698.709229,616.992371 698.709229,177.449661 
	C683.069214,177.449661 667.834900,177.449661 652.165833,177.449661 
	C652.165833,617.378296 652.165833,1056.935059 652.165833,1496.599365 
	C650.029541,1497.144531 648.284180,1497.607422 646.530212,1498.035034 
	C592.394043,1511.230713 538.259399,1524.432495 484.119781,1537.613525 
	C398.788788,1558.388794 313.455475,1579.154175 228.113495,1599.884277 
	C226.230591,1600.341553 224.043732,1600.944458 222.318466,1600.422363 
	C212.794724,1597.540405 203.370407,1594.329834 193.957352,1590.600220 
	C193.971619,1590.389648 193.985901,1590.178955 194.656891,1589.541016 
	C337.003357,1558.576782 479.349823,1527.612549 621.468811,1496.697876 
	C621.468811,1056.503052 621.468811,616.933289 621.468811,177.382370 
	C605.826294,177.382370 590.571106,177.382370 574.861877,177.382370 
	C574.861877,617.277710 574.861877,1056.868408 574.861877,1496.673218 
	C571.035034,1497.326904 567.615112,1497.911255 563.773621,1498.032593 
	C562.849182,1498.338745 561.924744,1498.645020 560.270874,1499.298584 
	C556.246582,1500.038696 552.222290,1500.778809 547.779358,1501.050903 
	C546.852966,1501.354370 545.926575,1501.657715 544.280823,1502.316284 
	C540.253235,1503.050537 536.225647,1503.784790 531.779358,1504.051025 
	C530.852966,1504.354370 529.926575,1504.657837 528.273193,1505.317871 
	C501.247223,1510.377075 474.221252,1515.436157 446.773712,1520.032471 
	C445.849213,1520.338745 444.924713,1520.645020 443.270782,1521.298584 
	C439.245605,1522.030884 435.220459,1522.763062 430.773651,1523.032349 
	C429.849152,1523.338623 428.924652,1523.644897 427.270721,1524.298706 
	C423.246490,1525.038818 419.222290,1525.778931 414.779388,1526.051025 
	C413.852997,1526.354492 412.926605,1526.657837 411.280792,1527.316162 
	C407.253204,1528.050415 403.225647,1528.784668 398.779388,1529.051025 
	C397.852997,1529.354370 396.926605,1529.657837 395.273224,1530.317627 
	C362.913910,1536.376831 330.554596,1542.436035 297.773712,1548.032471 
	C296.849213,1548.338745 295.924683,1548.644897 294.270782,1549.298584 
	C290.245636,1550.030884 286.220459,1550.763184 281.772797,1551.032349 
	C280.848602,1551.341919 279.924408,1551.651489 278.280792,1552.316162 
	C274.253204,1553.050415 270.225647,1553.784668 265.779388,1554.051025 
	C264.852997,1554.354492 263.926605,1554.657837 262.274750,1555.317261 
	C258.249207,1556.051147 254.223663,1556.785034 249.779175,1557.051025 
	C248.852859,1557.355225 247.926544,1557.659546 246.291046,1558.327026 
	C219.259140,1563.383179 192.227234,1568.439331 164.773773,1573.032715 
	C163.849304,1573.338867 162.924850,1573.645020 161.258286,1574.301880 
	C155.315643,1576.800293 150.649948,1573.814941 145.936554,1570.185059 
	C145.221054,1569.958374 144.505554,1569.731689 143.125565,1569.245483 
	C137.067062,1564.874756 131.008560,1560.504028 124.906181,1555.238525 
	C124.886497,1554.940674 124.866806,1554.642822 125.578400,1554.099121 
	C127.650291,1553.868286 129.722183,1553.637573 132.196625,1553.890503 
	C133.130936,1553.625366 134.065262,1553.360107 135.808945,1552.827881 
	C151.470657,1550.687500 167.132370,1548.547119 183.196274,1546.890503 
	C184.130783,1546.626465 185.065292,1546.362427 186.809479,1545.831909 
	C192.803635,1545.017212 198.797806,1544.202637 205.192566,1543.875977 
	C206.128250,1543.612793 207.063950,1543.349609 208.802826,1542.813477 
	C224.465881,1540.671753 240.128937,1538.529907 256.192230,1536.875977 
	C257.128021,1536.614258 258.063812,1536.352539 259.802948,1535.817993 
	C275.465973,1533.674683 291.128998,1531.531372 307.192078,1529.875977 
	C308.127991,1529.614868 309.063904,1529.353760 310.793549,1528.820190 
	C326.459900,1526.677002 342.126221,1524.533813 358.192780,1522.877930 
	C359.128357,1522.616089 360.063934,1522.354370 361.797546,1521.819580 
	C377.462830,1519.679565 393.128082,1517.539551 409.195099,1515.885254 
	C410.129913,1515.621094 411.064758,1515.356934 412.798340,1514.822876 
	C428.463531,1512.684204 444.128723,1510.545532 460.196625,1508.890503 
	C461.130920,1508.625366 462.065216,1508.360107 463.808899,1507.828003 
	C479.470581,1505.687500 495.132233,1503.547119 511.196198,1501.890381 
	C512.130737,1501.626343 513.065308,1501.362305 514.809570,1500.831909 
	C520.803711,1500.017334 526.797852,1499.202637 533.192627,1498.875977 
	C534.128357,1498.612793 535.064087,1498.349609 536.796326,1497.813965 
	C539.196411,1497.375488 541.596497,1496.936890 543.934387,1496.509644 
	C543.934387,1056.590088 543.934387,617.026917 543.934387,177.419662 
	C528.358459,177.419662 513.140747,177.419662 497.502899,177.419662 
	C497.502899,180.233109 497.502899,182.708694 497.502899,185.184296 
	C497.502899,578.680420 497.502930,972.176575 497.502899,1365.672729 
	C497.502899,1367.339355 497.315369,1369.031738 497.540070,1370.667480 
	C498.042847,1374.327515 496.490540,1375.564087 492.908997,1375.927612 
	C478.164642,1377.424072 463.438812,1379.119141 448.724365,1380.891846 
	C393.654297,1387.525757 338.962463,1396.428711 284.953552,1409.156006 
	C244.106613,1418.781738 203.815445,1430.271973 165.579163,1447.953735 
	C146.008194,1457.004028 127.244934,1467.408569 111.847023,1482.889893 
	C103.851715,1490.928467 96.511848,1500.006592 95.541618,1511.440308 
	C94.393021,1524.975952 94.668427,1538.783447 95.911385,1552.327637 
	C97.102707,1565.309448 105.468651,1575.198853 115.472313,1582.602295 
	C127.585732,1591.567017 140.265549,1600.109741 153.675247,1606.913330 
	C189.775192,1625.229736 228.538406,1636.279663 267.667664,1645.938721 
	C341.031311,1664.048706 415.631134,1674.853271 490.671844,1682.840454 
	C551.826599,1689.349609 613.167664,1693.485596 674.618042,1695.765381 
	C761.089844,1698.973755 847.562317,1698.929077 934.033020,1695.244873 
	C1013.301819,1691.867432 1092.316406,1685.699829 1170.976562,1675.171753 
	C1225.949951,1667.813843 1280.551880,1658.469116 1334.367554,1644.931030 
	C1372.161865,1635.423340 1409.427246,1624.256958 1444.569702,1607.027466 
	C1460.928711,1599.007202 1476.558350,1589.834351 1489.248779,1576.421509 
	C1498.450317,1566.696167 1503.760742,1555.488525 1503.031860,1541.735718 
	C1502.670776,1534.921631 1502.552490,1528.041382 1503.059937,1521.246094 
	C1503.983154,1508.884155 1499.668823,1498.286011 1491.287476,1489.978638 
	C1482.599854,1481.367554 1473.193237,1473.144897 1462.972656,1466.483765 
	C1437.568604,1449.927368 1409.330078,1439.272827 1380.618286,1430.017456 
	C1297.701660,1403.288452 1212.173340,1389.475952 1125.990356,1378.986694 
	C1117.624878,1377.968628 1109.250488,1377.023682 1100.637939,1376.016479 
	C1100.637939,1372.931763 1100.637939,1370.452637 1100.637939,1367.973511 
	C1100.637939,973.977356 1100.638062,579.981201 1100.637817,185.985031 
	C1100.637817,184.318390 1100.530273,182.643600 1100.657959,180.986862 
	C1100.893799,177.924698 1099.562866,176.949341 1096.549194,177.021317 
	C1089.220093,177.196335 1081.883911,177.077728 1074.550659,177.077591 
	C1067.770020,177.077469 1060.989380,177.077560 1054.089600,177.077560 
	C1054.089600,617.252075 1054.089600,1056.832886 1054.089600,1496.696899 
	C1077.741821,1499.821655 1101.147339,1502.921265 1124.555176,1506.004761 
	C1161.038208,1510.810547 1197.524658,1515.591064 1234.006226,1520.408081 
	C1273.128174,1525.573730 1312.246460,1530.766602 1351.365845,1535.951904 
	C1392.626709,1541.421265 1433.887085,1546.895630 1475.114380,1553.304688 
	C1475.108765,1553.617188 1475.103149,1553.929688 1474.817993,1554.838013 
	C1466.754883,1560.391357 1458.805176,1566.123169 1450.546265,1571.368042 
	C1448.568970,1572.623779 1445.461182,1572.904541 1443.046509,1572.526978 
	C1432.691162,1570.908691 1422.402222,1568.866821 1412.085938,1566.997925 
	C1353.950684,1556.466553 1295.815796,1545.932861 1237.678223,1535.414795 
	C1179.704834,1524.926514 1121.727661,1514.459229 1063.753662,1503.974487 
	C1050.370361,1501.554077 1036.993164,1499.100342 1023.159729,1496.579346 
	C1023.159729,1056.647827 1023.159729,617.080139 1023.159729,177.361389 
	C1007.386292,177.361389 992.153320,177.361389 976.696533,177.361389 
	C976.696533,617.245667 976.696533,1056.846069 976.696533,1496.700073 
	C1121.639526,1527.052124 1266.399170,1557.365845 1411.158813,1587.679565 
	C1411.155396,1588.107910 1411.151978,1588.536255 1411.148560,1588.964600 
	C1401.681641,1592.020142 1392.240356,1595.160278 1382.722900,1598.049316 
	C1381.105713,1598.540283 1379.101807,1598.217163 1377.377808,1597.825073 
	C1362.454224,1594.431030 1347.557251,1590.921387 1332.646362,1587.471802 
	C1218.054443,1560.961914 1103.460938,1534.460083 988.869202,1507.949585 
	C972.701599,1504.209106 956.541870,1500.434570 939.990479,1496.585571 
	C939.990479,1026.704956 939.990479,557.126709 939.990479,87.525604 
	C931.470459,87.525604 923.438599,87.525604 915.358887,87.525604 
	C915.358887,557.413391 915.358887,1026.875366 915.358887,1496.685425 
	C1054.003540,1534.880371 1192.554932,1573.049561 1331.106323,1611.218872 
	C1319.251099,1614.788574 1307.435303,1617.501343 1295.556274,1619.900635 
	C1293.259277,1620.364502 1290.583252,1620.034546 1288.302979,1619.342529 
	C1169.108154,1583.165283 1049.936157,1546.912842 930.764709,1510.658569 
	C915.534851,1506.025391 900.320679,1501.340698 884.727783,1496.566284 
	C884.727783,1033.548706 884.727783,570.802063 884.727783,108.107559 
	C874.653259,108.107559 865.074951,108.107559 855.111450,108.107559 
	C855.111450,109.929237 855.111450,111.397919 855.111450,112.866600 
	C855.111450,572.529175 855.116760,1032.191650 855.021362,1491.854248 
	C855.020569,1495.720215 856.342712,1497.148926 859.853210,1498.405518 
	C959.743042,1534.161255 1059.589600,1570.037964 1159.431519,1605.927490 
	C1181.643311,1613.911865 1203.811401,1622.017944 1226.000000,1630.732910 
	C1225.998901,1631.397827 1225.997803,1632.062622 1225.170776,1632.967529 
	C1214.812134,1634.603882 1204.470093,1636.356079 1194.091919,1637.857544 
	C1134.227173,1646.518066 1074.120605,1653.290283 1013.742615,1656.575684 
	C951.860901,1659.942627 889.893494,1662.873657 827.939758,1663.456543 
	C767.150391,1664.028320 706.310181,1662.021362 645.532410,1659.961548 
	C607.756775,1658.681152 569.979553,1656.012817 532.341492,1652.488647 
	C489.746063,1648.500366 447.299683,1642.907227 404.802856,1637.890259 
	C396.713715,1636.935303 388.691498,1635.413696 380.638397,1634.153442 
	C382.514832,1632.523315 384.340271,1631.792236 386.191467,1631.133911 
	C510.281830,1587.006836 634.370300,1542.874390 758.484985,1498.816040 
	C762.220337,1497.489990 764.311157,1496.193481 764.309570,1491.416260 
	C764.163330,1047.432251 764.173584,603.448120 764.173584,159.464066 
	C764.173584,157.703659 764.173584,155.943268 764.173584,154.250488 
	C754.255432,154.250488 745.024841,154.250488 735.551208,154.250488 
	C735.551208,157.124069 735.551208,159.617065 735.551208,162.110062 
	C735.551208,603.594177 735.552002,1045.078369 735.533264,1486.562500 
	C735.533142,1489.706421 735.264160,1492.850342 734.709045,1496.236084 
	C734.449707,1496.423340 734.215088,1496.637573 733.331360,1497.218018 
	C733.179382,1497.286133 733.032776,1497.372070 732.874634,1497.419800 
	C595.062195,1538.931274 457.250244,1580.444092 319.422363,1621.904175 
	C317.756744,1622.405151 315.803406,1622.641479 314.126312,1622.301392 
	C302.070190,1619.856201 290.050812,1617.229980 278.036774,1614.162842 
	C278.033234,1613.830444 278.024292,1613.498169 278.728973,1612.880981 
M896.744995,1805.798340 
	C896.032532,1803.439575 895.320068,1801.080811 894.533813,1798.478027 
	C856.991333,1798.478027 819.677673,1798.449829 782.364868,1798.613037 
	C781.240601,1798.617920 779.324036,1800.491455 779.121155,1801.716309 
	C771.314636,1848.838135 763.668823,1895.986694 755.994324,1943.130371 
	C748.480286,1989.288574 740.953857,2035.444824 733.442383,2081.603516 
	C731.172485,2095.552246 728.934143,2109.506348 726.630676,2123.771729 
	C763.275757,2123.771729 799.530579,2123.771729 836.278137,2123.771729 
	C842.436523,2062.200439 848.577759,2000.800171 854.623535,1940.355103 
	C856.434814,1949.479980 857.815857,1959.747681 860.547546,1969.642456 
	C874.486206,2020.131958 888.811890,2070.514648 902.850830,2120.976807 
	C903.756897,2124.233643 905.642151,2124.049316 908.019714,2124.046387 
	C926.517090,2124.021973 945.019531,2123.792480 963.508667,2124.183350 
	C968.854858,2124.296631 970.797424,2122.693848 972.153015,2117.570557 
	C987.868774,2058.172607 1007.940063,1999.938965 1019.379883,1941.327026 
	C1025.373047,2000.928955 1031.548340,2062.341064 1037.712036,2123.639648 
	C1074.630615,2123.639648 1110.821411,2123.639648 1147.237183,2123.639648 
	C1146.983276,2121.580078 1146.819824,2119.927246 1146.571167,2118.287598 
	C1143.402954,2097.387695 1140.205566,2076.492432 1137.048828,2055.590820 
	C1130.884521,2014.775024 1124.752563,1973.954346 1118.586182,1933.138916 
	C1112.071533,1890.019897 1105.471069,1846.913452 1099.103271,1803.772827 
	C1098.495728,1799.656494 1097.254150,1798.335815 1092.947021,1798.359985 
	C1058.119751,1798.555542 1023.290833,1798.469849 988.462402,1798.469849 
	C986.823364,1798.469849 985.184326,1798.469727 983.247131,1798.469727 
	C967.072205,1856.920166 946.654602,1913.885742 938.175659,1974.060547 
	C937.250244,1973.078979 937.038208,1972.201294 936.880066,1971.313965 
	C934.077759,1955.593994 932.215149,1939.636597 928.302185,1924.198608 
	C918.334534,1884.872070 907.451538,1845.777344 896.744995,1805.798340 
M408.500366,1798.469727 
	C397.433411,1798.469727 386.366455,1798.469727 375.083313,1798.469727 
	C375.083313,1801.348389 375.083862,1803.339355 375.083252,1805.330200 
	C375.065918,1862.479858 375.215363,1919.630493 374.864594,1976.778198 
	C374.807037,1986.157593 373.450378,1995.756958 371.098938,2004.841675 
	C367.498688,2018.751099 357.617310,2025.035034 342.629242,2024.759521 
	C327.471008,2024.480957 318.108704,2018.036377 315.214813,2003.644775 
	C313.001923,1992.639893 312.056335,1981.216431 311.992126,1969.970825 
	C311.678284,1914.988892 311.849213,1860.004272 311.848694,1805.020508 
	C311.848694,1803.053223 311.848694,1801.085938 311.848694,1798.795898 
	C273.711884,1798.795898 235.991165,1798.795898 197.964340,1798.795898 
	C197.964340,1801.093384 197.964325,1803.080078 197.964325,1805.066895 
	C197.964325,1858.551025 197.819626,1912.035767 198.055801,1965.518921 
	C198.123383,1980.822876 198.850616,1996.156738 200.043243,2011.416870 
	C203.389633,2054.235107 224.942627,2085.365967 262.188721,2105.937012 
	C283.870667,2117.911621 307.430237,2123.268799 332.000458,2124.541504 
	C360.305115,2126.008057 387.941498,2122.763428 413.965942,2110.949951 
	C449.152832,2094.977051 474.806793,2069.899414 483.217560,2031.138794 
	C487.034210,2013.549927 488.502686,1995.175903 488.713470,1977.130981 
	C489.390747,1919.156006 488.987061,1861.168213 488.985931,1803.185425 
	C488.985931,1801.748169 488.818817,1800.311035 488.704620,1798.469727 
	C462.096741,1798.469727 435.798584,1798.469727 408.500366,1798.469727 
M1331.503174,1924.950806 
	C1317.426758,1921.615234 1303.235229,1918.688110 1289.324097,1914.766113 
	C1282.711304,1912.901733 1276.226074,1909.780518 1270.414673,1906.079468 
	C1263.013550,1901.366211 1263.425293,1892.967651 1270.724365,1888.062744 
	C1272.885620,1886.610352 1275.497803,1885.093628 1277.970825,1884.971680 
	C1287.206909,1884.516357 1296.760498,1883.112427 1305.669434,1884.814819 
	C1330.968628,1889.648926 1354.442383,1900.079224 1377.611938,1911.076904 
	C1378.690430,1911.588745 1379.785767,1912.065308 1380.991943,1912.612183 
	C1381.087891,1911.843140 1381.206909,1911.505981 1381.157837,1911.195312 
	C1376.174194,1879.634521 1371.219238,1848.068726 1366.044678,1816.539185 
	C1365.816406,1815.148438 1363.777588,1813.457520 1362.242798,1812.966431 
	C1328.045288,1802.023560 1293.416382,1794.788330 1257.156006,1799.952148 
	C1231.698608,1803.577393 1207.975464,1811.221802 1187.148438,1826.839722 
	C1147.918457,1856.258057 1139.593872,1901.098267 1148.986206,1935.494019 
	C1156.454956,1962.846069 1175.978638,1979.438477 1201.624023,1988.690308 
	C1215.771484,1993.793945 1230.942993,1995.990479 1245.472046,2000.131836 
	C1253.384766,2002.386963 1261.436157,2005.079346 1268.490967,2009.180908 
	C1276.835449,2014.032349 1276.353760,2024.532715 1268.035400,2029.593140 
	C1264.322754,2031.851807 1259.796509,2033.307861 1255.468872,2033.919067 
	C1242.862793,2035.698853 1230.498657,2033.609985 1218.616821,2029.436401 
	C1196.679199,2021.730835 1174.658447,2014.154541 1154.140259,2002.052612 
	C1154.140259,2003.270264 1154.039795,2004.063599 1154.154785,2004.824463 
	C1159.303223,2038.889282 1164.696289,2072.919922 1169.430908,2107.041748 
	C1170.300659,2113.310303 1172.700928,2115.488770 1178.497437,2116.130371 
	C1199.827881,2118.491455 1221.075806,2121.765381 1242.451782,2123.504395 
	C1266.841919,2125.488525 1291.208862,2123.867676 1314.531616,2115.903320 
	C1361.185669,2099.971924 1393.394653,2070.801270 1399.429443,2019.175049 
	C1402.161743,1995.802368 1397.589478,1974.091553 1382.221191,1955.435181 
	C1369.104248,1939.511841 1351.948975,1930.270264 1331.503174,1924.950806 
M638.002502,2111.489746 
	C638.002502,2077.091553 638.002502,2042.693359 638.002502,2008.014282 
	C666.111694,2008.014282 693.407593,2008.014282 721.089417,2008.014282 
	C725.493774,1980.293213 729.863037,1952.793335 734.332397,1924.662842 
	C701.850403,1924.662842 670.114807,1924.662842 638.240356,1924.662842 
	C638.240356,1911.880615 638.240356,1899.628052 638.240356,1886.810913 
	C672.345703,1886.810913 706.218262,1886.810913 740.362549,1886.810913 
	C745.053101,1857.179565 749.662781,1828.058838 754.297974,1798.777466 
	C673.506836,1798.777466 593.591248,1798.777466 513.468140,1798.777466 
	C513.468140,1907.295776 513.468140,2015.505249 513.468140,2123.980469 
	C554.987915,2123.980469 596.226440,2123.980469 638.002502,2123.980469 
	C638.002502,2120.059570 638.002502,2116.271973 638.002502,2111.489746 
M794.719727,727.499817 
	C794.719727,983.755493 794.719727,1240.011108 794.719727,1496.742188 
	C800.190308,1496.742188 804.989624,1496.742188 809.788940,1496.742188 
	C814.724548,1496.742188 819.660156,1496.742188 824.554688,1496.742188 
	C824.554688,1040.907349 824.554688,585.844482 824.554688,130.686920 
	C814.509705,130.686920 804.796143,130.686920 794.719727,130.686920 
	C794.719727,329.551483 794.719727,528.025635 794.719727,727.499817 
z"/>
<path fill="#0088B7" opacity="1.000000" stroke="none" 
	d="
M524.468628,2211.000000 
	C526.000305,2210.666748 528.000610,2210.041504 530.000977,2210.041260 
	C786.285400,2210.007080 1042.569824,2210.093018 1298.854248,2209.980469 
	C1371.266724,2209.948730 1443.682739,2209.645996 1516.088745,2208.779053 
	C1533.345947,2208.572510 1548.975586,2201.410400 1562.671753,2190.773438 
	C1579.143066,2177.981445 1589.489868,2161.139160 1594.456665,2140.989258 
	C1595.468506,2136.883789 1595.666016,2132.577637 1596.619507,2128.182129 
	C1597.000000,2155.656250 1597.000000,2183.312256 1597.000000,2211.000000 
	C1239.645752,2211.000000 882.291565,2211.000000 524.468628,2211.000000 
z"/>
<path fill="#0088B7" opacity="1.000000" stroke="none" 
	d="
M1073.531372,1.000001 
	C1071.999634,1.333223 1069.999268,1.958065 1067.998901,1.958333 
	C811.714844,1.992775 555.430725,1.906990 299.146759,2.019632 
	C226.734283,2.051459 154.318710,2.368215 81.912186,3.210135 
	C64.626030,3.411133 49.043369,10.587314 35.319996,21.213312 
	C18.803226,34.002239 8.534364,50.875000 3.544665,71.010094 
	C2.527658,75.114052 2.334125,79.422081 1.380493,83.818016 
	C1.000000,56.343803 1.000000,28.687607 1.000000,1.000000 
	C358.354248,1.000000 715.708496,1.000000 1073.531372,1.000001 
z"/>
<path fill="#0088B7" opacity="1.000000" stroke="none" 
	d="
M1597.000000,82.531342 
	C1595.668701,76.751945 1594.620117,70.427032 1592.946289,64.272125 
	C1589.663330,52.199688 1583.686523,41.486858 1575.515747,32.018932 
	C1562.092651,16.465124 1545.277344,6.683908 1525.151123,2.602332 
	C1523.234985,2.213731 1521.278076,2.026275 1519.170044,1.372725 
	C1544.928711,1.000000 1570.857422,1.000000 1597.000000,1.000000 
	C1597.000000,28.020517 1597.000000,55.041599 1597.000000,82.531342 
z"/>
<path fill="#0088B7" opacity="1.000000" stroke="none" 
	d="
M1.000001,2129.468750 
	C1.996327,2134.170166 2.783951,2139.391357 4.029566,2144.500732 
	C7.280367,2157.835449 13.574537,2169.537842 22.455812,2180.089844 
	C34.644768,2194.571533 49.941326,2203.729248 68.041061,2208.492676 
	C71.494545,2209.401611 75.113487,2209.681885 78.828064,2210.625977 
	C53.071312,2211.000000 27.142628,2211.000000 1.000000,2211.000000 
	C1.000000,2183.979492 1.000000,2156.958496 1.000001,2129.468750 
z"/>
<path fill="#FCFDFD" opacity="1.000000" stroke="none" 
	d="
M255.791992,1536.388062 
	C240.128937,1538.529907 224.465881,1540.671753 208.078705,1542.892578 
	C206.500381,1543.110474 205.646179,1543.249268 204.791977,1543.388062 
	C198.797806,1544.202637 192.803635,1545.017212 186.082031,1545.906982 
	C184.501083,1546.123657 183.647583,1546.265137 182.794067,1546.406738 
	C167.132370,1548.547119 151.470657,1550.687500 135.081604,1552.903320 
	C133.500870,1553.121460 132.647476,1553.264038 131.794067,1553.406738 
	C129.722183,1553.637573 127.650291,1553.868286 124.860794,1554.287964 
	C124.412140,1555.028931 124.681099,1555.581177 124.950058,1556.133301 
	C131.008560,1560.504028 137.067062,1564.874756 143.631744,1569.570312 
	C144.759567,1570.179810 145.381226,1570.464722 146.002884,1570.749512 
	C150.649948,1573.814941 155.315643,1576.800293 161.955414,1574.175293 
	C163.500122,1573.864258 164.347717,1573.679810 165.195312,1573.495361 
	C192.227234,1568.439331 219.259140,1563.383179 246.971664,1558.192261 
	C248.500900,1557.877930 249.349518,1557.698364 250.198120,1557.518799 
	C254.223663,1556.785034 258.249207,1556.051147 262.963379,1555.187134 
	C264.500671,1554.877686 265.349365,1554.698364 266.198059,1554.518921 
	C270.225647,1553.784668 274.253204,1553.050415 278.966827,1552.186401 
	C280.500336,1551.869629 281.347809,1551.682495 282.195282,1551.495361 
	C286.220459,1550.763184 290.245636,1550.030884 294.961609,1549.173584 
	C296.500031,1548.864258 297.347656,1548.679810 298.195282,1548.495361 
	C330.554596,1542.436035 362.913910,1536.376831 395.962585,1530.187256 
	C397.500671,1529.877686 398.349365,1529.698364 399.198059,1529.518921 
	C403.225647,1528.784668 407.253204,1528.050415 411.966370,1527.186523 
	C413.500671,1526.877686 414.349365,1526.698364 415.198059,1526.518921 
	C419.222290,1525.778931 423.246490,1525.038818 427.961548,1524.173706 
	C429.500031,1523.864258 430.347656,1523.679810 431.195282,1523.495361 
	C435.220459,1522.763062 439.245605,1522.030884 443.961609,1521.173584 
	C445.500031,1520.864258 446.347656,1520.679810 447.195282,1520.495361 
	C474.221252,1515.436157 501.247223,1510.377075 528.962585,1505.187500 
	C530.500671,1504.877686 531.349365,1504.698364 532.197998,1504.519043 
	C536.225647,1503.784790 540.253235,1503.050537 544.966431,1502.186646 
	C546.500671,1501.877563 547.349304,1501.698242 548.197998,1501.518921 
	C552.222290,1500.778809 556.246582,1500.038696 560.961670,1499.173584 
	C562.500061,1498.864258 563.347595,1498.679810 564.195190,1498.495361 
	C567.615112,1497.911255 571.035034,1497.326904 574.861877,1496.673218 
	C574.861877,1056.868408 574.861877,617.277710 574.861877,177.382370 
	C590.571106,177.382370 605.826294,177.382370 621.468811,177.382370 
	C621.468811,616.933289 621.468811,1056.503052 621.468811,1496.697876 
	C479.349823,1527.612549 337.003357,1558.576782 194.042938,1589.710205 
	C192.902313,1590.027100 192.375656,1590.174683 191.003754,1590.559082 
	C192.531494,1590.912476 193.221771,1591.072144 193.912018,1591.231934 
	C203.370407,1594.329834 212.794724,1597.540405 222.318466,1600.422363 
	C224.043732,1600.944458 226.230591,1600.341553 228.113495,1599.884277 
	C313.455475,1579.154175 398.788788,1558.388794 484.119781,1537.613525 
	C538.259399,1524.432495 592.394043,1511.230713 646.530212,1498.035034 
	C648.284180,1497.607422 650.029541,1497.144531 652.165833,1496.599365 
	C652.165833,1056.935059 652.165833,617.378296 652.165833,177.449661 
	C667.834900,177.449661 683.069214,177.449661 698.709229,177.449661 
	C698.709229,616.992371 698.709229,1056.665649 698.709229,1496.769653 
	C682.898743,1501.144165 666.913147,1505.575073 650.923218,1509.990112 
	C527.326965,1544.116699 403.729889,1578.239990 280.134521,1612.369629 
	C279.655457,1612.501953 279.197021,1612.708862 278.100250,1612.988770 
	C277.176300,1613.356445 276.881073,1613.616211 276.585876,1613.875977 
	C277.063873,1614.137817 277.541809,1614.399536 278.019745,1614.661255 
	C290.050812,1617.229980 302.070190,1619.856201 314.126312,1622.301392 
	C315.803406,1622.641479 317.756744,1622.405151 319.422363,1621.904175 
	C457.250244,1580.444092 595.062195,1538.931274 732.874634,1497.419800 
	C733.032776,1497.372070 733.179382,1497.286133 733.957336,1497.052490 
	C734.762512,1496.589478 734.941650,1496.291870 735.120789,1495.994263 
	C735.264160,1492.850342 735.533142,1489.706421 735.533264,1486.562500 
	C735.552002,1045.078369 735.551208,603.594177 735.551208,162.110062 
	C735.551208,159.617065 735.551208,157.124069 735.551208,154.250488 
	C745.024841,154.250488 754.255432,154.250488 764.173584,154.250488 
	C764.173584,155.943268 764.173584,157.703659 764.173584,159.464066 
	C764.173584,603.448120 764.163330,1047.432251 764.309570,1491.416260 
	C764.311157,1496.193481 762.220337,1497.489990 758.484985,1498.816040 
	C634.370300,1542.874390 510.281830,1587.006836 386.191467,1631.133911 
	C384.340271,1631.792236 382.514832,1632.523315 380.638397,1634.153442 
	C388.691498,1635.413696 396.713715,1636.935303 404.802856,1637.890259 
	C447.299683,1642.907227 489.746063,1648.500366 532.341492,1652.488647 
	C569.979553,1656.012817 607.756775,1658.681152 645.532410,1659.961548 
	C706.310181,1662.021362 767.150391,1664.028320 827.939758,1663.456543 
	C889.893494,1662.873657 951.860901,1659.942627 1013.742615,1656.575684 
	C1074.120605,1653.290283 1134.227173,1646.518066 1194.091919,1637.857544 
	C1204.470093,1636.356079 1214.812134,1634.603882 1225.911621,1632.881592 
	C1227.844482,1632.449829 1229.036621,1632.104004 1231.088867,1631.508789 
	C1228.802002,1630.861328 1227.400757,1630.464600 1225.999634,1630.067993 
	C1203.811401,1622.017944 1181.643311,1613.911865 1159.431519,1605.927490 
	C1059.589600,1570.037964 959.743042,1534.161255 859.853210,1498.405518 
	C856.342712,1497.148926 855.020569,1495.720215 855.021362,1491.854248 
	C855.116760,1032.191650 855.111450,572.529175 855.111450,112.866600 
	C855.111450,111.397919 855.111450,109.929237 855.111450,108.107559 
	C865.074951,108.107559 874.653259,108.107559 884.727783,108.107559 
	C884.727783,570.802063 884.727783,1033.548706 884.727783,1496.566284 
	C900.320679,1501.340698 915.534851,1506.025391 930.764709,1510.658569 
	C1049.936157,1546.912842 1169.108154,1583.165283 1288.302979,1619.342529 
	C1290.583252,1620.034546 1293.259277,1620.364502 1295.556274,1619.900635 
	C1307.435303,1617.501343 1319.251099,1614.788574 1331.106323,1611.218872 
	C1192.554932,1573.049561 1054.003540,1534.880371 915.358887,1496.685425 
	C915.358887,1026.875366 915.358887,557.413391 915.358887,87.525604 
	C923.438599,87.525604 931.470459,87.525604 939.990479,87.525604 
	C939.990479,557.126709 939.990479,1026.704956 939.990479,1496.585571 
	C956.541870,1500.434570 972.701599,1504.209106 988.869202,1507.949585 
	C1103.460938,1534.460083 1218.054443,1560.961914 1332.646362,1587.471802 
	C1347.557251,1590.921387 1362.454224,1594.431030 1377.377808,1597.825073 
	C1379.101807,1598.217163 1381.105713,1598.540283 1382.722900,1598.049316 
	C1392.240356,1595.160278 1401.681641,1592.020142 1411.148560,1588.964600 
	C1411.151978,1588.536255 1411.155396,1588.107910 1411.158813,1587.679565 
	C1266.399170,1557.365845 1121.639526,1527.052124 976.696533,1496.700073 
	C976.696533,1056.846069 976.696533,617.245667 976.696533,177.361389 
	C992.153320,177.361389 1007.386292,177.361389 1023.159729,177.361389 
	C1023.159729,617.080139 1023.159729,1056.647827 1023.159729,1496.579346 
	C1036.993164,1499.100342 1050.370361,1501.554077 1063.753662,1503.974487 
	C1121.727661,1514.459229 1179.704834,1524.926514 1237.678223,1535.414795 
	C1295.815796,1545.932861 1353.950684,1556.466553 1412.085938,1566.997925 
	C1422.402222,1568.866821 1432.691162,1570.908691 1443.046509,1572.526978 
	C1445.461182,1572.904541 1448.568970,1572.623779 1450.546265,1571.368042 
	C1458.805176,1566.123169 1466.754883,1560.391357 1475.275391,1554.358154 
	C1475.537720,1553.374756 1475.342651,1552.871216 1475.147583,1552.367798 
	C1433.887085,1546.895630 1392.626709,1541.421265 1351.365845,1535.951904 
	C1312.246460,1530.766602 1273.128174,1525.573730 1234.006226,1520.408081 
	C1197.524658,1515.591064 1161.038208,1510.810547 1124.555176,1506.004761 
	C1101.147339,1502.921265 1077.741821,1499.821655 1054.089600,1496.696899 
	C1054.089600,1056.832886 1054.089600,617.252075 1054.089600,177.077560 
	C1060.989380,177.077560 1067.770020,177.077469 1074.550659,177.077591 
	C1081.883911,177.077728 1089.220093,177.196335 1096.549194,177.021317 
	C1099.562866,176.949341 1100.893799,177.924698 1100.657959,180.986862 
	C1100.530273,182.643600 1100.637817,184.318390 1100.637817,185.985031 
	C1100.638062,579.981201 1100.637939,973.977356 1100.637939,1367.973511 
	C1100.637939,1370.452637 1100.637939,1372.931763 1100.637939,1376.016479 
	C1109.250488,1377.023682 1117.624878,1377.968628 1125.990356,1378.986694 
	C1212.173340,1389.475952 1297.701660,1403.288452 1380.618286,1430.017456 
	C1409.330078,1439.272827 1437.568604,1449.927368 1462.972656,1466.483765 
	C1473.193237,1473.144897 1482.599854,1481.367554 1491.287476,1489.978638 
	C1499.668823,1498.286011 1503.983154,1508.884155 1503.059937,1521.246094 
	C1502.552490,1528.041382 1502.670776,1534.921631 1503.031860,1541.735718 
	C1503.760742,1555.488525 1498.450317,1566.696167 1489.248779,1576.421509 
	C1476.558350,1589.834351 1460.928711,1599.007202 1444.569702,1607.027466 
	C1409.427246,1624.256958 1372.161865,1635.423340 1334.367554,1644.931030 
	C1280.551880,1658.469116 1225.949951,1667.813843 1170.976562,1675.171753 
	C1092.316406,1685.699829 1013.301819,1691.867432 934.033020,1695.244873 
	C847.562317,1698.929077 761.089844,1698.973755 674.618042,1695.765381 
	C613.167664,1693.485596 551.826599,1689.349609 490.671844,1682.840454 
	C415.631134,1674.853271 341.031311,1664.048706 267.667664,1645.938721 
	C228.538406,1636.279663 189.775192,1625.229736 153.675247,1606.913330 
	C140.265549,1600.109741 127.585732,1591.567017 115.472313,1582.602295 
	C105.468651,1575.198853 97.102707,1565.309448 95.911385,1552.327637 
	C94.668427,1538.783447 94.393021,1524.975952 95.541618,1511.440308 
	C96.511848,1500.006592 103.851715,1490.928467 111.847023,1482.889893 
	C127.244934,1467.408569 146.008194,1457.004028 165.579163,1447.953735 
	C203.815445,1430.271973 244.106613,1418.781738 284.953552,1409.156006 
	C338.962463,1396.428711 393.654297,1387.525757 448.724365,1380.891846 
	C463.438812,1379.119141 478.164642,1377.424072 492.908997,1375.927612 
	C496.490540,1375.564087 498.042847,1374.327515 497.540070,1370.667480 
	C497.315369,1369.031738 497.502899,1367.339355 497.502899,1365.672729 
	C497.502930,972.176575 497.502899,578.680420 497.502899,185.184296 
	C497.502899,182.708694 497.502899,180.233109 497.502899,177.419662 
	C513.140747,177.419662 528.358459,177.419662 543.934387,177.419662 
	C543.934387,617.026917 543.934387,1056.590088 543.934387,1496.509644 
	C541.596497,1496.936890 539.196411,1497.375488 536.075500,1497.892822 
	C534.500427,1498.110474 533.646240,1498.249268 532.791992,1498.387939 
	C526.797852,1499.202637 520.803711,1500.017334 514.082031,1500.906982 
	C512.500977,1501.123535 511.647461,1501.265137 510.793915,1501.406738 
	C495.132233,1503.547119 479.470581,1505.687500 463.081543,1507.903442 
	C461.500793,1508.121460 460.647339,1508.264038 459.793884,1508.406738 
	C444.128723,1510.545532 428.463531,1512.684204 412.076416,1514.900757 
	C410.500763,1515.119019 409.647064,1515.259277 408.793365,1515.399658 
	C393.128082,1517.539551 377.462830,1519.679565 361.076111,1521.898926 
	C359.500641,1522.115723 358.646606,1522.253052 357.792572,1522.390381 
	C342.126221,1524.533813 326.459900,1526.677002 310.074097,1528.899292 
	C308.500458,1529.114990 307.646240,1529.251587 306.792023,1529.388062 
	C291.128998,1531.531372 275.465973,1533.674683 259.078796,1535.896729 
	C257.500397,1536.112915 256.646179,1536.250488 255.791992,1536.388062 
M384.500000,1468.859985 
	C315.676514,1469.118408 246.846451,1469.974854 178.034180,1469.216064 
	C160.761459,1469.025635 147.571030,1474.451416 135.329605,1485.275391 
	C126.383316,1493.185669 117.980873,1501.539673 113.687523,1512.909546 
	C111.583694,1518.481079 110.735603,1524.526855 109.143585,1531.080933 
	C239.475372,1519.528687 368.177063,1508.121094 497.185181,1496.686157 
	C497.185181,1487.224731 497.185181,1477.994873 497.185181,1468.857056 
	C459.737213,1468.857056 422.618591,1468.857056 384.500000,1468.859985 
M1257.500000,1468.974854 
	C1205.385498,1468.974854 1153.270874,1468.974854 1101.052124,1468.974854 
	C1101.052124,1478.091797 1101.052124,1487.299805 1101.052124,1496.714111 
	C1230.160400,1507.469238 1358.869019,1518.191162 1487.836792,1528.934692 
	C1487.411133,1517.705688 1483.680298,1508.435791 1477.610596,1500.028931 
	C1469.164673,1488.331177 1457.996948,1479.675049 1445.803101,1472.311157 
	C1443.267334,1470.779663 1439.951538,1469.840210 1436.987427,1469.820923 
	C1377.492310,1469.434814 1317.996094,1469.223511 1257.500000,1468.974854 
M1352.819580,1450.222290 
	C1366.445435,1449.759399 1380.071411,1449.296509 1393.697266,1448.833740 
	C1385.143921,1444.830322 1376.582397,1441.575439 1367.774902,1439.252686 
	C1362.430054,1437.843140 1356.664062,1437.102783 1351.158081,1437.394897 
	C1328.375122,1438.603760 1305.622559,1440.372559 1282.852783,1441.841797 
	C1228.835815,1445.327271 1174.815063,1448.752808 1120.797119,1452.221802 
	C1114.192627,1452.645874 1107.595459,1453.186401 1100.925537,1453.677979 
	C1100.925537,1455.742920 1100.925537,1457.322388 1100.925537,1459.410645 
	C1184.790649,1456.353516 1268.334351,1453.308228 1352.819580,1450.222290 
M337.645538,1453.719849 
	C390.813568,1455.592285 443.981567,1457.464600 497.300842,1459.342407 
	C497.300842,1457.093384 497.300842,1455.649292 497.300842,1453.651978 
	C491.850677,1453.309082 486.575287,1452.987061 481.301300,1452.643921 
	C442.094299,1450.093262 402.887207,1447.544189 363.680908,1444.982666 
	C330.122894,1442.790283 296.526276,1441.046143 263.025024,1438.186523 
	C245.960464,1436.729858 229.590683,1437.200684 213.898621,1444.698853 
	C211.068832,1446.051025 208.038879,1446.984375 205.101349,1448.111206 
	C205.202240,1448.355103 205.303116,1448.598999 205.404007,1448.842896 
	C249.164368,1450.456055 292.924713,1452.069092 337.645538,1453.719849 
M445.099854,1434.493774 
	C405.538910,1429.027710 365.982666,1423.527466 326.414185,1418.116455 
	C314.845551,1416.534546 304.366364,1417.896240 294.704742,1422.080200 
	C362.573669,1430.708496 429.818726,1439.257446 497.134735,1447.815430 
	C497.934998,1443.903809 497.984741,1441.550049 493.471191,1441.004272 
	C477.613586,1439.086670 461.799377,1436.809937 445.099854,1434.493774 
M1233.740723,1423.234985 
	C1189.462402,1429.372070 1145.184082,1435.509155 1100.934326,1441.642212 
	C1100.934326,1443.903076 1100.934326,1445.650635 1100.934326,1447.744751 
	C1167.239502,1439.316284 1233.172729,1430.935059 1299.106079,1422.553833 
	C1288.999390,1419.903198 1279.381104,1416.179932 1268.714111,1418.331177 
	C1257.485107,1420.595581 1245.997314,1421.575806 1233.740723,1423.234985 
M497.534668,1410.463379 
	C497.534668,1403.407471 497.534668,1396.351440 497.534668,1388.802246 
	C473.250824,1391.668335 449.898804,1394.424316 426.546783,1397.180420 
	C426.504456,1397.587524 426.462128,1397.994629 426.419830,1398.401733 
	C449.861206,1406.379272 473.302612,1414.356934 497.534607,1422.603516 
	C497.534607,1418.329834 497.534607,1414.888550 497.534668,1410.463379 
M1135.928589,1410.342896 
	C1145.705811,1407.018921 1155.483032,1403.695068 1165.260254,1400.371094 
	C1165.195068,1399.969604 1165.130005,1399.567993 1165.064819,1399.166504 
	C1143.771118,1396.762451 1122.477417,1394.358521 1100.926270,1391.925415 
	C1100.926270,1402.312500 1100.926270,1412.019653 1100.926270,1422.245117 
	C1112.637939,1418.292114 1123.922974,1414.483032 1135.928589,1410.342896 
M410.694214,1416.771729 
	C439.432465,1422.837158 468.170715,1428.902710 497.242462,1435.038574 
	C497.242462,1432.908936 497.242462,1431.168335 497.242462,1429.318481 
	C459.885834,1420.892456 422.841034,1412.281128 385.637207,1404.422974 
	C380.105225,1403.254395 373.824341,1405.631470 367.889893,1406.368286 
	C367.932312,1406.788696 367.974731,1407.209106 368.017120,1407.629517 
	C381.971008,1410.600830 395.924866,1413.572021 410.694214,1416.771729 
M1120.263428,1424.864136 
	C1113.808472,1426.307739 1107.353516,1427.751221 1100.999023,1429.172241 
	C1100.999023,1431.250977 1100.999023,1432.953491 1100.999023,1434.935547 
	C1142.487427,1426.121948 1183.541016,1417.400757 1224.594604,1408.679443 
	C1224.616455,1408.193604 1224.638306,1407.707642 1224.660156,1407.221680 
	C1217.843628,1406.796997 1210.726929,1404.893066 1204.262329,1406.204102 
	C1176.431152,1411.848511 1148.791504,1418.436523 1120.263428,1424.864136 
z"/>
<path fill="#FDFEFE" opacity="1.000000" stroke="none" 
	d="
M896.839966,1806.194092 
	C907.451538,1845.777344 918.334534,1884.872070 928.302185,1924.198608 
	C932.215149,1939.636597 934.077759,1955.593994 936.880066,1971.313965 
	C937.038208,1972.201294 937.250244,1973.078979 938.175659,1974.060547 
	C946.654602,1913.885742 967.072205,1856.920166 983.247131,1798.469727 
	C985.184326,1798.469727 986.823364,1798.469849 988.462402,1798.469849 
	C1023.290833,1798.469849 1058.119751,1798.555542 1092.947021,1798.359985 
	C1097.254150,1798.335815 1098.495728,1799.656494 1099.103271,1803.772827 
	C1105.471069,1846.913452 1112.071533,1890.019897 1118.586182,1933.138916 
	C1124.752563,1973.954346 1130.884521,2014.775024 1137.048828,2055.590820 
	C1140.205566,2076.492432 1143.402954,2097.387695 1146.571167,2118.287598 
	C1146.819824,2119.927246 1146.983276,2121.580078 1147.237183,2123.639648 
	C1110.821411,2123.639648 1074.630615,2123.639648 1037.712036,2123.639648 
	C1031.548340,2062.341064 1025.373047,2000.928955 1019.379883,1941.327026 
	C1007.940063,1999.938965 987.868774,2058.172607 972.153015,2117.570557 
	C970.797424,2122.693848 968.854858,2124.296631 963.508667,2124.183350 
	C945.019531,2123.792480 926.517090,2124.021973 908.019714,2124.046387 
	C905.642151,2124.049316 903.756897,2124.233643 902.850830,2120.976807 
	C888.811890,2070.514648 874.486206,2020.131958 860.547546,1969.642456 
	C857.815857,1959.747681 856.434814,1949.479980 854.623535,1940.355103 
	C848.577759,2000.800171 842.436523,2062.200439 836.278137,2123.771729 
	C799.530579,2123.771729 763.275757,2123.771729 726.630676,2123.771729 
	C728.934143,2109.506348 731.172485,2095.552246 733.442383,2081.603516 
	C740.953857,2035.444824 748.480286,1989.288574 755.994324,1943.130371 
	C763.668823,1895.986694 771.314636,1848.838135 779.121155,1801.716309 
	C779.324036,1800.491455 781.240601,1798.617920 782.364868,1798.613037 
	C819.677673,1798.449829 856.991333,1798.478027 894.533813,1798.478027 
	C895.320068,1801.080811 896.032532,1803.439575 896.839966,1806.194092 
z"/>
<path fill="#FDFEFE" opacity="1.000000" stroke="none" 
	d="
M409.000366,1798.469727 
	C435.798584,1798.469727 462.096741,1798.469727 488.704620,1798.469727 
	C488.818817,1800.311035 488.985931,1801.748169 488.985931,1803.185425 
	C488.987061,1861.168213 489.390747,1919.156006 488.713470,1977.130981 
	C488.502686,1995.175903 487.034210,2013.549927 483.217560,2031.138794 
	C474.806793,2069.899414 449.152832,2094.977051 413.965942,2110.949951 
	C387.941498,2122.763428 360.305115,2126.008057 332.000458,2124.541504 
	C307.430237,2123.268799 283.870667,2117.911621 262.188721,2105.937012 
	C224.942627,2085.365967 203.389633,2054.235107 200.043243,2011.416870 
	C198.850616,1996.156738 198.123383,1980.822876 198.055801,1965.518921 
	C197.819626,1912.035767 197.964325,1858.551025 197.964325,1805.066895 
	C197.964325,1803.080078 197.964340,1801.093384 197.964340,1798.795898 
	C235.991165,1798.795898 273.711884,1798.795898 311.848694,1798.795898 
	C311.848694,1801.085938 311.848694,1803.053223 311.848694,1805.020508 
	C311.849213,1860.004272 311.678284,1914.988892 311.992126,1969.970825 
	C312.056335,1981.216431 313.001923,1992.639893 315.214813,2003.644775 
	C318.108704,2018.036377 327.471008,2024.480957 342.629242,2024.759521 
	C357.617310,2025.035034 367.498688,2018.751099 371.098938,2004.841675 
	C373.450378,1995.756958 374.807037,1986.157593 374.864594,1976.778198 
	C375.215363,1919.630493 375.065918,1862.479858 375.083252,1805.330200 
	C375.083862,1803.339355 375.083313,1801.348389 375.083313,1798.469727 
	C386.366455,1798.469727 397.433411,1798.469727 409.000366,1798.469727 
z"/>
<path fill="#FDFEFE" opacity="1.000000" stroke="none" 
	d="
M1331.907715,1925.020508 
	C1351.948975,1930.270264 1369.104248,1939.511841 1382.221191,1955.435181 
	C1397.589478,1974.091553 1402.161743,1995.802368 1399.429443,2019.175049 
	C1393.394653,2070.801270 1361.185669,2099.971924 1314.531616,2115.903320 
	C1291.208862,2123.867676 1266.841919,2125.488525 1242.451782,2123.504395 
	C1221.075806,2121.765381 1199.827881,2118.491455 1178.497437,2116.130371 
	C1172.700928,2115.488770 1170.300659,2113.310303 1169.430908,2107.041748 
	C1164.696289,2072.919922 1159.303223,2038.889282 1154.154785,2004.824463 
	C1154.039795,2004.063599 1154.140259,2003.270264 1154.140259,2002.052612 
	C1174.658447,2014.154541 1196.679199,2021.730835 1218.616821,2029.436401 
	C1230.498657,2033.609985 1242.862793,2035.698853 1255.468872,2033.919067 
	C1259.796509,2033.307861 1264.322754,2031.851807 1268.035400,2029.593140 
	C1276.353760,2024.532715 1276.835449,2014.032349 1268.490967,2009.180908 
	C1261.436157,2005.079346 1253.384766,2002.386963 1245.472046,2000.131836 
	C1230.942993,1995.990479 1215.771484,1993.793945 1201.624023,1988.690308 
	C1175.978638,1979.438477 1156.454956,1962.846069 1148.986206,1935.494019 
	C1139.593872,1901.098267 1147.918457,1856.258057 1187.148438,1826.839722 
	C1207.975464,1811.221802 1231.698608,1803.577393 1257.156006,1799.952148 
	C1293.416382,1794.788330 1328.045288,1802.023560 1362.242798,1812.966431 
	C1363.777588,1813.457520 1365.816406,1815.148438 1366.044678,1816.539185 
	C1371.219238,1848.068726 1376.174194,1879.634521 1381.157837,1911.195312 
	C1381.206909,1911.505981 1381.087891,1911.843140 1380.991943,1912.612183 
	C1379.785767,1912.065308 1378.690430,1911.588745 1377.611938,1911.076904 
	C1354.442383,1900.079224 1330.968628,1889.648926 1305.669434,1884.814819 
	C1296.760498,1883.112427 1287.206909,1884.516357 1277.970825,1884.971680 
	C1275.497803,1885.093628 1272.885620,1886.610352 1270.724365,1888.062744 
	C1263.425293,1892.967651 1263.013550,1901.366211 1270.414673,1906.079468 
	C1276.226074,1909.780518 1282.711304,1912.901733 1289.324097,1914.766113 
	C1303.235229,1918.688110 1317.426758,1921.615234 1331.907715,1925.020508 
z"/>
<path fill="#FDFEFE" opacity="1.000000" stroke="none" 
	d="
M638.002502,2111.986816 
	C638.002502,2116.271973 638.002502,2120.059570 638.002502,2123.980469 
	C596.226440,2123.980469 554.987915,2123.980469 513.468140,2123.980469 
	C513.468140,2015.505249 513.468140,1907.295776 513.468140,1798.777466 
	C593.591248,1798.777466 673.506836,1798.777466 754.297974,1798.777466 
	C749.662781,1828.058838 745.053101,1857.179565 740.362549,1886.810913 
	C706.218262,1886.810913 672.345703,1886.810913 638.240356,1886.810913 
	C638.240356,1899.628052 638.240356,1911.880615 638.240356,1924.662842 
	C670.114807,1924.662842 701.850403,1924.662842 734.332397,1924.662842 
	C729.863037,1952.793335 725.493774,1980.293213 721.089417,2008.014282 
	C693.407593,2008.014282 666.111694,2008.014282 638.002502,2008.014282 
	C638.002502,2042.693359 638.002502,2077.091553 638.002502,2111.986816 
z"/>
<path fill="#FCFDFE" opacity="1.000000" stroke="none" 
	d="
M794.719727,726.999756 
	C794.719727,528.025635 794.719727,329.551483 794.719727,130.686920 
	C804.796143,130.686920 814.509705,130.686920 824.554688,130.686920 
	C824.554688,585.844482 824.554688,1040.907349 824.554688,1496.742188 
	C819.660156,1496.742188 814.724548,1496.742188 809.788940,1496.742188 
	C804.989624,1496.742188 800.190308,1496.742188 794.719727,1496.742188 
	C794.719727,1240.011108 794.719727,983.755493 794.719727,726.999756 
z"/>
<path fill="#0189B7" opacity="1.000000" stroke="none" 
	d="
M1225.999756,1630.400391 
	C1227.400757,1630.464600 1228.802002,1630.861328 1231.088867,1631.508789 
	C1229.036621,1632.104004 1227.844482,1632.449829 1226.324463,1632.761597 
	C1225.997803,1632.062622 1225.998901,1631.397827 1225.999756,1630.400391 
z"/>
<path fill="#0088B7" opacity="1.000000" stroke="none" 
	d="
M281.984039,1551.263916 
	C281.347809,1551.682495 280.500336,1551.869629 279.326538,1552.008911 
	C279.924408,1551.651489 280.848602,1551.341919 281.984039,1551.263916 
z"/>
<path fill="#0088B7" opacity="1.000000" stroke="none" 
	d="
M164.984528,1573.264038 
	C164.347717,1573.679810 163.500122,1573.864258 162.326462,1574.000000 
	C162.924850,1573.645020 163.849304,1573.338867 164.984528,1573.264038 
z"/>
<path fill="#0088B7" opacity="1.000000" stroke="none" 
	d="
M249.988647,1557.284912 
	C249.349518,1557.698364 248.500900,1557.877930 247.326263,1558.010742 
	C247.926544,1557.659546 248.852859,1557.355225 249.988647,1557.284912 
z"/>
<path fill="#0088B7" opacity="1.000000" stroke="none" 
	d="
M265.988708,1554.284912 
	C265.349365,1554.698364 264.500671,1554.877686 263.326111,1555.009033 
	C263.926605,1554.657837 264.852997,1554.354492 265.988708,1554.284912 
z"/>
<path fill="#0088B7" opacity="1.000000" stroke="none" 
	d="
M131.995346,1553.648560 
	C132.647476,1553.264038 133.500870,1553.121460 134.676926,1553.036865 
	C134.065262,1553.360107 133.130936,1553.625366 131.995346,1553.648560 
z"/>
<path fill="#0088B7" opacity="1.000000" stroke="none" 
	d="
M563.984375,1498.263916 
	C563.347595,1498.679810 562.500061,1498.864258 561.326355,1499.000000 
	C561.924744,1498.645020 562.849182,1498.338745 563.984375,1498.263916 
z"/>
<path fill="#0088B7" opacity="1.000000" stroke="none" 
	d="
M297.984497,1548.263916 
	C297.347656,1548.679810 296.500031,1548.864258 295.326294,1549.000000 
	C295.924683,1548.644897 296.849213,1548.338745 297.984497,1548.263916 
z"/>
<path fill="#0088B7" opacity="1.000000" stroke="none" 
	d="
M182.995178,1546.648682 
	C183.647583,1546.265137 184.501083,1546.123657 185.677185,1546.040283 
	C185.065292,1546.362427 184.130783,1546.626465 182.995178,1546.648682 
z"/>
<path fill="#0088B7" opacity="1.000000" stroke="none" 
	d="
M255.992096,1536.632080 
	C256.646179,1536.250488 257.500397,1536.112915 258.677094,1536.033081 
	C258.063812,1536.352539 257.128021,1536.614258 255.992096,1536.632080 
z"/>
<path fill="#0088B7" opacity="1.000000" stroke="none" 
	d="
M532.992310,1498.632080 
	C533.646240,1498.249268 534.500427,1498.110474 535.677246,1498.029053 
	C535.064087,1498.349609 534.128357,1498.612793 532.992310,1498.632080 
z"/>
<path fill="#0088B7" opacity="1.000000" stroke="none" 
	d="
M547.988647,1501.284912 
	C547.349304,1501.698242 546.500671,1501.877563 545.326050,1502.009033 
	C545.926575,1501.657715 546.852966,1501.354370 547.988647,1501.284912 
z"/>
<path fill="#0088B7" opacity="1.000000" stroke="none" 
	d="
M510.995056,1501.648560 
	C511.647461,1501.265137 512.500977,1501.123535 513.677246,1501.040161 
	C513.065308,1501.362305 512.130737,1501.626343 510.995056,1501.648560 
z"/>
<path fill="#0088B7" opacity="1.000000" stroke="none" 
	d="
M531.988647,1504.284912 
	C531.349365,1504.698364 530.500671,1504.877686 529.326050,1505.009033 
	C529.926575,1504.657837 530.852966,1504.354370 531.988647,1504.284912 
z"/>
<path fill="#0088B7" opacity="1.000000" stroke="none" 
	d="
M459.995239,1508.648560 
	C460.647339,1508.264038 461.500793,1508.121460 462.676849,1508.036865 
	C462.065216,1508.360107 461.130920,1508.625366 459.995239,1508.648560 
z"/>
<path fill="#0088B7" opacity="1.000000" stroke="none" 
	d="
M408.994232,1515.642456 
	C409.647064,1515.259277 410.500763,1515.119019 411.677002,1515.035645 
	C411.064758,1515.356934 410.129913,1515.621094 408.994232,1515.642456 
z"/>
<path fill="#0088B7" opacity="1.000000" stroke="none" 
	d="
M446.984497,1520.263916 
	C446.347656,1520.679810 445.500031,1520.864258 444.326294,1521.000000 
	C444.924713,1520.645020 445.849213,1520.338745 446.984497,1520.263916 
z"/>
<path fill="#0088B7" opacity="1.000000" stroke="none" 
	d="
M357.992676,1522.634155 
	C358.646606,1522.253052 359.500641,1522.115723 360.677124,1522.035522 
	C360.063934,1522.354370 359.128357,1522.616089 357.992676,1522.634155 
z"/>
<path fill="#0088B7" opacity="1.000000" stroke="none" 
	d="
M430.984467,1523.263916 
	C430.347656,1523.679810 429.500031,1523.864258 428.326294,1523.999878 
	C428.924652,1523.644897 429.849152,1523.338623 430.984467,1523.263916 
z"/>
<path fill="#0088B7" opacity="1.000000" stroke="none" 
	d="
M414.988708,1526.284912 
	C414.349365,1526.698364 413.500671,1526.877686 412.326111,1527.009033 
	C412.926605,1526.657837 413.852997,1526.354492 414.988708,1526.284912 
z"/>
<path fill="#0088B7" opacity="1.000000" stroke="none" 
	d="
M398.988708,1529.284912 
	C398.349365,1529.698364 397.500671,1529.877686 396.326111,1530.009033 
	C396.926605,1529.657837 397.852997,1529.354370 398.988708,1529.284912 
z"/>
<path fill="#0088B7" opacity="1.000000" stroke="none" 
	d="
M306.992065,1529.632080 
	C307.646240,1529.251587 308.500458,1529.114990 309.677246,1529.035522 
	C309.063904,1529.353760 308.127991,1529.614868 306.992065,1529.632080 
z"/>
<path fill="#0088B7" opacity="1.000000" stroke="none" 
	d="
M204.992279,1543.632080 
	C205.646179,1543.249268 206.500381,1543.110474 207.677094,1543.029053 
	C207.063950,1543.349609 206.128250,1543.612793 204.992279,1543.632080 
z"/>
<path fill="#0088B7" opacity="1.000000" stroke="none" 
	d="
M145.969727,1570.467285 
	C145.381226,1570.464722 144.759567,1570.179810 143.963989,1569.699951 
	C144.505554,1569.731689 145.221054,1569.958374 145.969727,1570.467285 
z"/>
<path fill="#0B8DBA" opacity="1.000000" stroke="none" 
	d="
M278.028259,1614.412109 
	C277.541809,1614.399536 277.063873,1614.137817 276.585876,1613.875977 
	C276.881073,1613.616211 277.176300,1613.356445 277.740723,1613.131226 
	C278.024292,1613.498169 278.033234,1613.830444 278.028259,1614.412109 
z"/>
<path fill="#0189B7" opacity="1.000000" stroke="none" 
	d="
M193.934692,1590.916016 
	C193.221771,1591.072144 192.531494,1590.912476 191.003754,1590.559082 
	C192.375656,1590.174683 192.902313,1590.027100 193.714569,1589.923950 
	C193.985901,1590.178955 193.971619,1590.389648 193.934692,1590.916016 
z"/>
<path fill="#0B8DBA" opacity="1.000000" stroke="none" 
	d="
M734.914917,1496.115234 
	C734.941650,1496.291870 734.762512,1496.589478 734.294189,1496.882812 
	C734.215088,1496.637573 734.449707,1496.423340 734.914917,1496.115234 
z"/>
<path fill="#0088B7" opacity="1.000000" stroke="none" 
	d="
M124.928116,1555.685913 
	C124.681099,1555.581177 124.412140,1555.028931 124.495148,1554.410889 
	C124.866806,1554.642822 124.886497,1554.940674 124.928116,1555.685913 
z"/>
<path fill="#058AB8" opacity="1.000000" stroke="none" 
	d="
M1475.130981,1552.836182 
	C1475.342651,1552.871216 1475.537720,1553.374756 1475.415161,1554.060059 
	C1475.103149,1553.929688 1475.108765,1553.617188 1475.130981,1552.836182 
z"/>
<path fill="#0289B8" opacity="1.000000" stroke="none" 
	d="
M385.000000,1468.858521 
	C422.618591,1468.857056 459.737213,1468.857056 497.185181,1468.857056 
	C497.185181,1477.994873 497.185181,1487.224731 497.185181,1496.686157 
	C368.177063,1508.121094 239.475372,1519.528687 109.143585,1531.080933 
	C110.735603,1524.526855 111.583694,1518.481079 113.687523,1512.909546 
	C117.980873,1501.539673 126.383316,1493.185669 135.329605,1485.275391 
	C147.571030,1474.451416 160.761459,1469.025635 178.034180,1469.216064 
	C246.846451,1469.974854 315.676514,1469.118408 385.000000,1468.858521 
z"/>
<path fill="#0289B8" opacity="1.000000" stroke="none" 
	d="
M1258.000000,1468.975952 
	C1317.996094,1469.223511 1377.492310,1469.434814 1436.987427,1469.820923 
	C1439.951538,1469.840210 1443.267334,1470.779663 1445.803101,1472.311157 
	C1457.996948,1479.675049 1469.164673,1488.331177 1477.610596,1500.028931 
	C1483.680298,1508.435791 1487.411133,1517.705688 1487.836792,1528.934692 
	C1358.869019,1518.191162 1230.160400,1507.469238 1101.052124,1496.714111 
	C1101.052124,1487.299805 1101.052124,1478.091797 1101.052124,1468.974854 
	C1153.270874,1468.974854 1205.385498,1468.974854 1258.000000,1468.975952 
z"/>
<path fill="#078BB9" opacity="1.000000" stroke="none" 
	d="
M1352.348755,1450.242554 
	C1268.334351,1453.308228 1184.790649,1456.353516 1100.925537,1459.410645 
	C1100.925537,1457.322388 1100.925537,1455.742920 1100.925537,1453.677979 
	C1107.595459,1453.186401 1114.192627,1452.645874 1120.797119,1452.221802 
	C1174.815063,1448.752808 1228.835815,1445.327271 1282.852783,1441.841797 
	C1305.622559,1440.372559 1328.375122,1438.603760 1351.158081,1437.394897 
	C1356.664062,1437.102783 1362.430054,1437.843140 1367.774902,1439.252686 
	C1376.582397,1441.575439 1385.143921,1444.830322 1393.697266,1448.833740 
	C1380.071411,1449.296509 1366.445435,1449.759399 1352.348755,1450.242554 
z"/>
<path fill="#078BB9" opacity="1.000000" stroke="none" 
	d="
M337.165314,1453.701050 
	C292.924713,1452.069092 249.164368,1450.456055 205.404007,1448.842896 
	C205.303116,1448.598999 205.202240,1448.355103 205.101349,1448.111206 
	C208.038879,1446.984375 211.068832,1446.051025 213.898621,1444.698853 
	C229.590683,1437.200684 245.960464,1436.729858 263.025024,1438.186523 
	C296.526276,1441.046143 330.122894,1442.790283 363.680908,1444.982666 
	C402.887207,1447.544189 442.094299,1450.093262 481.301300,1452.643921 
	C486.575287,1452.987061 491.850677,1453.309082 497.300842,1453.651978 
	C497.300842,1455.649292 497.300842,1457.093384 497.300842,1459.342407 
	C443.981567,1457.464600 390.813568,1455.592285 337.165314,1453.701050 
z"/>
<path fill="#0B8DBA" opacity="1.000000" stroke="none" 
	d="
M445.534271,1434.581665 
	C461.799377,1436.809937 477.613586,1439.086670 493.471191,1441.004272 
	C497.984741,1441.550049 497.934998,1443.903809 497.134735,1447.815430 
	C429.818726,1439.257446 362.573669,1430.708496 294.704742,1422.080200 
	C304.366364,1417.896240 314.845551,1416.534546 326.414185,1418.116455 
	C365.982666,1423.527466 405.538910,1429.027710 445.534271,1434.581665 
z"/>
<path fill="#0B8DBA" opacity="1.000000" stroke="none" 
	d="
M1234.181641,1423.176025 
	C1245.997314,1421.575806 1257.485107,1420.595581 1268.714111,1418.331177 
	C1279.381104,1416.179932 1288.999390,1419.903198 1299.106079,1422.553833 
	C1233.172729,1430.935059 1167.239502,1439.316284 1100.934326,1447.744751 
	C1100.934326,1445.650635 1100.934326,1443.903076 1100.934326,1441.642212 
	C1145.184082,1435.509155 1189.462402,1429.372070 1234.181641,1423.176025 
z"/>
<path fill="#078BB9" opacity="1.000000" stroke="none" 
	d="
M497.534637,1410.955322 
	C497.534607,1414.888550 497.534607,1418.329834 497.534607,1422.603516 
	C473.302612,1414.356934 449.861206,1406.379272 426.419830,1398.401733 
	C426.462128,1397.994629 426.504456,1397.587524 426.546783,1397.180420 
	C449.898804,1394.424316 473.250824,1391.668335 497.534668,1388.802246 
	C497.534668,1396.351440 497.534668,1403.407471 497.534637,1410.955322 
z"/>
<path fill="#058AB8" opacity="1.000000" stroke="none" 
	d="
M1135.568359,1410.508545 
	C1123.922974,1414.483032 1112.637939,1418.292114 1100.926270,1422.245117 
	C1100.926270,1412.019653 1100.926270,1402.312500 1100.926270,1391.925415 
	C1122.477417,1394.358521 1143.771118,1396.762451 1165.064819,1399.166504 
	C1165.130005,1399.567993 1165.195068,1399.969604 1165.260254,1400.371094 
	C1155.483032,1403.695068 1145.705811,1407.018921 1135.568359,1410.508545 
z"/>
<path fill="#0B8DBA" opacity="1.000000" stroke="none" 
	d="
M410.286469,1416.657471 
	C395.924866,1413.572021 381.971008,1410.600830 368.017120,1407.629517 
	C367.974731,1407.209106 367.932312,1406.788696 367.889893,1406.368286 
	C373.824341,1405.631470 380.105225,1403.254395 385.637207,1404.422974 
	C422.841034,1412.281128 459.885834,1420.892456 497.242462,1429.318481 
	C497.242462,1431.168335 497.242462,1432.908936 497.242462,1435.038574 
	C468.170715,1428.902710 439.432465,1422.837158 410.286469,1416.657471 
z"/>
<path fill="#0B8DBA" opacity="1.000000" stroke="none" 
	d="
M1120.672729,1424.772461 
	C1148.791504,1418.436523 1176.431152,1411.848511 1204.262329,1406.204102 
	C1210.726929,1404.893066 1217.843628,1406.796997 1224.660156,1407.221680 
	C1224.638306,1407.707642 1224.616455,1408.193604 1224.594604,1408.679443 
	C1183.541016,1417.400757 1142.487427,1426.121948 1100.999023,1434.935547 
	C1100.999023,1432.953491 1100.999023,1431.250977 1100.999023,1429.172241 
	C1107.353516,1427.751221 1113.808472,1426.307739 1120.672729,1424.772461 
z"/>
</svg>